# xmcd CD database file
#
# Track frame offsets:
#	150
#	12975
#	32467
#	45115
#	69997
#	85132
#	97170
#	113302
#	128910
#	143562
#	156422
#
# Disc length: 2428 seconds
#
# Revision: 0
# Processed by: cddbd v1.5.2PL0 Copyright (c) Steve Scherf et al.
# Submitted via: CDex 1.70beta3
#
DISCID=7d097a0b
DTITLE=Various Artist - ミスティ/映画で聴いたジャズ
DYEAR=1900
DGENRE=Jazz
TTITLE0=01-ミスティ/エロール・ガーナー
TTITLE1=02-慕情/クリフォード・ブラウン＝マックス・ローチ・クインテット
TTITLE2=03-ソウル・ボサ・ノヴァ/クインシー・ジョーンズ
TTITLE3=04-カーニバルの朝/ジェリー・マリガン
TTITLE4=05-恋におちた時/ヘレン・メリル
TTITLE5=06-酒とバラの日々/サラ・ヴォーン
TTITLE6=07-いそしぎ/ジェリー・マリガン
TTITLE7=08-サマータイム/メレン・メリル
TTITLE8=09-煙が目にしみる/クリフォード・ブラウン
TTITLE9=10-ムーン・リヴァー/サラ・ヴォーン
TTITLE10=11-マイ・フェイバリット・シングス/ドロシー・アシュビー
EXTD=
EXTT0=
EXTT1=
EXTT2=
EXTT3=
EXTT4=
EXTT5=
EXTT6=
EXTT7=
EXTT8=
EXTT9=
EXTT10=
PLAYORDER=
